<?xml version="1.0" encoding="UTF-8" standalone="no"?>
<svg
   id="wave"
   viewBox="0 0 391.40811 30.70797"
   version="1.1"
   sodipodi:docname="wave.svg"
   width="103.56mm"
   height="8.1248169mm"
   inkscape:version="1.1.2 (b8e25be833, 2022-02-05)"
   xmlns:inkscape="http://www.inkscape.org/namespaces/inkscape"
   xmlns:sodipodi="http://sodipodi.sourceforge.net/DTD/sodipodi-0.dtd"
   xmlns="http://www.w3.org/2000/svg"
   xmlns:svg="http://www.w3.org/2000/svg">
  <sodipodi:namedview
     id="namedview12"
     pagecolor="#ffffff"
     bordercolor="#111111"
     borderopacity="1"
     inkscape:pageshadow="0"
     inkscape:pageopacity="0"
     inkscape:pagecheckerboard="1"
     showgrid="false"
     units="mm"
     width="1413mm"
     lock-margins="false"
     fit-margin-top="0"
     fit-margin-left="0"
     fit-margin-right="0"
     fit-margin-bottom="0"
     inkscape:zoom="2"
     inkscape:cx="296.75"
     inkscape:cy="6"
     inkscape:window-width="2560"
     inkscape:window-height="1377"
     inkscape:window-x="-8"
     inkscape:window-y="-8"
     inkscape:window-maximized="1"
     inkscape:current-layer="wave"
     inkscape:snap-midpoints="true"
     showguides="true"
     inkscape:guide-bbox="true"
     inkscape:document-units="mm">
    <sodipodi:guide
       position="0,18.316892"
       orientation="1,0"
       id="guide115" />
    <sodipodi:guide
       position="5.1250016,18.457975"
       orientation="0,-1"
       id="guide117" />
  </sodipodi:namedview>
  <defs
     id="defs7">
    <linearGradient
       id="sw-gradient-0"
       x1="0"
       x2="0"
       y1="1243.0028"
       y2="11.709469"
       gradientTransform="matrix(0.40096864,0,0,0.02493961,0,-0.29202955)"
       gradientUnits="userSpaceOnUse">
      <stop
         stop-color="rgba(6, 167, 191, 1)"
         offset="0%"
         id="stop2" />
      <stop
         stop-color="rgba(6, 167, 191, 1)"
         offset="100%"
         id="stop4" />
    </linearGradient>
  </defs>
  <path
     style="opacity:1;fill:url(#sw-gradient-0);stroke-width:0.1"
     fill="url(#sw-gradient-0)"
     d="m 0,12.391083 c 6.8761524,3.947245 13.004628,5.856061 19.5375,7.853137 6.83,2.07 13.91875,1.28875 20.71875,-1.81125 6.9,-3.1 14.64375,-9.4249996 21.44375,-13.0449996 6.87,-3.58 13.7,-4.67999995 20.6,-5.15999995 6.84,-0.52 13.7,-0.52 20.6,4.12999995 6.81,4.65 13.7,13.9499996 20.5,14.9799996 6.89,1.07 13.7,-6.23 20.6,-9.3 6.86,-3.1299996 13.7,-2.0299996 20.6,1.55 6.83,3.62 13.7,9.82 20.5,9.3 6.9,-0.48 13.8,-7.78 20.6,-12.3999996 6.87,-4.68 13.7,-6.68 20.6,-7.74999995 6.84,-1.03 13.7,-1.03 20.6,2.58999995 6.81,3.58 13.7,10.8799996 20.5,12.9099996 6.89,2.07 13.7,-1.03 20.6,-4.13 6.86,-3.0999996 13.7,-6.1999996 20.6,-5.1699996 6.83,1.07 13.7,6.1699996 20.5,9.8199996 6.9,3.65 13.8,5.65 20.6,3.62 6.87,-2.07 13.7,-8.27 20.6,-10.34 6.84,-2.0299996 14.09775,1.14203 20.99775,2.21203 6.81,1.03 13.30225,-0.14203 20.10225,-1.17203 6.89,-1.07 13.69745,-3.0865585 20.6,-4.1399996 6.85749,-1.046565 13.69871,-1.0473572 20.6,-1.55 6.82876,-0.4973604 13.12102,-1.2260127 20.5,-0.51 7.37898,0.7160127 13.45414,4.4809576 20.57875,7.3720296 l 0.0312,18.45797 h -3.42 -17.19 -20.5 -20.6 -20.6 -20.5 H 370.3 349.7 329.1 308.6 288 267.4 246.9 226.3 205.7 185.1 164.6 144 123.4 102.9 82.3 61.7 41.1 20.6 3.4 0 Z"
     id="path9"
     sodipodi:nodetypes="cccccccccccccccccccccsszcccssascccccccccccccccccccccc" />
</svg>
