<?xml version="1.0" standalone="no"?>
<svg xmlns:xlink="http://www.w3.org/1999/xlink" id="wave" style="transform:rotate(180deg); transition: 0.3s" viewBox="0 0 1440 310" version="1.1" xmlns="http://www.w3.org/2000/svg"><defs><linearGradient id="sw-gradient-0" x1="0" x2="0" y1="1" y2="0"><stop stop-color="rgba(6, 167, 191, 1)" offset="0%"/><stop stop-color="rgba(6, 167, 191, 1)" offset="100%"/></linearGradient></defs><path style="transform:translate(0, 0px); opacity:1" fill="url(#sw-gradient-0)" d="M0,93L34.3,113.7C68.6,134,137,176,206,196.3C274.3,217,343,217,411,186C480,155,549,93,617,56.8C685.7,21,754,10,823,5.2C891.4,0,960,0,1029,46.5C1097.1,93,1166,186,1234,196.3C1302.9,207,1371,134,1440,103.3C1508.6,72,1577,83,1646,118.8C1714.3,155,1783,217,1851,211.8C1920,207,1989,134,2057,87.8C2125.7,41,2194,21,2263,10.3C2331.4,0,2400,0,2469,36.2C2537.1,72,2606,145,2674,165.3C2742.9,186,2811,155,2880,124C2948.6,93,3017,62,3086,72.3C3154.3,83,3223,134,3291,170.5C3360,207,3429,227,3497,206.7C3565.7,186,3634,124,3703,103.3C3771.4,83,3840,103,3909,113.7C3977.1,124,4046,124,4114,113.7C4182.9,103,4251,83,4320,72.3C4388.6,62,4457,62,4526,56.8C4594.3,52,4663,41,4731,51.7C4800,62,4869,93,4903,108.5L4937.1,124L4937.1,310L4902.9,310C4868.6,310,4800,310,4731,310C4662.9,310,4594,310,4526,310C4457.1,310,4389,310,4320,310C4251.4,310,4183,310,4114,310C4045.7,310,3977,310,3909,310C3840,310,3771,310,3703,310C3634.3,310,3566,310,3497,310C3428.6,310,3360,310,3291,310C3222.9,310,3154,310,3086,310C3017.1,310,2949,310,2880,310C2811.4,310,2743,310,2674,310C2605.7,310,2537,310,2469,310C2400,310,2331,310,2263,310C2194.3,310,2126,310,2057,310C1988.6,310,1920,310,1851,310C1782.9,310,1714,310,1646,310C1577.1,310,1509,310,1440,310C1371.4,310,1303,310,1234,310C1165.7,310,1097,310,1029,310C960,310,891,310,823,310C754.3,310,686,310,617,310C548.6,310,480,310,411,310C342.9,310,274,310,206,310C137.1,310,69,310,34,310L0,310Z"/></svg>